<svg xmlns="http://www.w3.org/2000/svg" viewBox="0 0 605.97 584.41" xmlns:v="https://vecta.io/nano"><defs><linearGradient id="A" x1="142.94" y1="341.3" x2="275.79" y2="341.3" gradientUnits="userSpaceOnUse"><stop offset="0" stop-color="#b39ac9"/><stop offset="1" stop-color="#363795"/></linearGradient><linearGradient id="B" x1="0" y1="292.2" x2="605.97" y2="292.2" href="#A"/></defs><path d="M209.77 272.51c-36.76 0-66.83 30.69-66.83 68.62s30.07 68.96 66.83 68.96c34.08 0 62.11-26.68 66.01-60.79v-15.94-.35c-3.89-34.09-31.93-60.49-66.02-60.49z" fill="url(#A)"/><path d="M581.13 271.44c16.25-21.34 24.84-46.67 24.84-73.26 0-51.69-33.48-98.2-83.3-115.74-8.81-3.1-16.01-9.86-19.75-18.54C486.17 25.08 447.51 0 404.43 0c-50.68 0-93.21 34.61-104.09 80.87C289.65 34.61 247.86 0 198.05 0c-36.46 0-69.78 18.41-89.14 49.25C98.26 66.23 83.2 80.23 65.35 89.76 25.05 111.28 0 152.83 0 198.18c0 27.32 8.87 53.22 25.64 74.89 8.72 11.27 8.72 27 0 38.27C8.87 333.01 0 358.9 0 386.23c0 45.36 25.05 86.9 65.36 108.43 17.84 9.53 32.9 23.53 43.56 40.51 19.35 30.84 52.67 49.25 89.14 49.25 49.81 0 91.6-34.61 102.29-80.87 10.88 46.25 53.4 80.87 104.09 80.87 43.08 0 81.74-25.08 98.48-63.9 3.74-8.68 10.94-15.44 19.75-18.54 49.83-17.54 83.3-64.05 83.3-115.74 0-26.59-8.59-51.92-24.84-73.26-9.31-12.22-9.31-29.3 0-41.53zM436.64 396.99c-17.54 16.58-41.25 25.86-65.75 25.77-7.14-.03-14.17-.82-20.96-2.34-9.61-2.16-18.76-5.77-27.18-10.73v-37.71c11.88 13.49 29.61 21.98 49.35 21.73 34.79-.44 62.94-28.15 62.9-61.88-.04-34.05-28.62-61.75-63.75-61.75h-1.12c-33.79.57-60.72 27.64-60.72 60.4v.47a85.51 85.51 0 0 1 .53 9.51v120.37h-12.55v17.62c0 2.05-.29-19.64-.41-17.62-.01-.18-.02-.16-.03 0h-14.48v-55.21c-18.07 17.97-43.54 29.14-71.51 29.14-54.66 0-99.18-42.41-99.18-94.48s44.52-94.13 99.18-94.13c33.33 0 63.66 15.71 82.25 39.78l12.69-19.22c17.63-16.63 41.38-25.87 65.98-25.71 24.79.16 48.09 9.59 65.64 26.62 17.7 17.16 27.46 39.98 27.45 64.26 0 24.68-10.08 47.85-28.33 65.1z" fill="url(#B)"/></svg>